<svg width="500" height="299" viewBox="0 0 500 299" fill="none" xmlns="http://www.w3.org/2000/svg">
<g clip-path="url(#clip0)">
<path d="M382.812 295.55C376.41 290.141 372.522 281.596 373.542 273.278C374.562 264.959 380.877 257.312 389.07 255.546C397.262 253.779 406.601 258.669 409.089 266.672C410.458 251.243 412.036 235.167 420.239 222.028C427.667 210.131 440.532 201.618 454.474 200.095C468.417 198.572 483.097 204.324 491.792 215.329C500.487 226.333 502.617 242.332 496.526 254.966C492.04 264.273 483.775 271.2 475.115 276.835C447.131 294.891 413.568 302.233 380.601 297.512L382.812 295.55Z" fill="#F2F2F2"/>
<path d="M478.005 204.643C466.5 214.013 455.946 224.494 446.495 235.932C431.704 253.771 419.735 273.772 411.005 295.239C410.366 296.805 412.909 297.486 413.541 295.938C427.825 261.051 450.628 230.301 479.864 206.503C481.177 205.433 479.307 203.583 478.005 204.643Z" fill="white"/>
<path d="M160.958 294.08C169.75 286.651 175.091 274.915 173.69 263.489C172.29 252.064 163.615 241.561 152.363 239.134C141.111 236.708 128.284 243.424 124.866 254.416C122.985 233.224 120.818 211.145 109.551 193.098C99.3493 176.757 81.6795 165.065 62.5294 162.973C43.3794 160.881 23.2168 168.782 11.2736 183.897C-0.669596 199.012 -3.59384 220.985 4.77087 238.339C10.9328 251.122 22.2854 260.636 34.18 268.376C72.128 293.068 119.203 303.367 163.995 296.775" fill="#F2F2F2"/>
<path d="M30.2107 169.22C46.0119 182.09 60.5078 196.484 73.4888 212.195C86.4718 227.889 97.902 244.805 107.619 262.706C113.05 272.748 117.929 283.079 122.234 293.653C123.112 295.804 119.619 296.74 118.751 294.613C111.126 275.972 101.692 258.122 90.5849 241.321C79.5317 224.581 66.8808 208.953 52.8097 194.656C44.8511 186.573 36.4541 178.934 27.6567 171.774C25.8535 170.305 28.4224 167.763 30.2107 169.22L30.2107 169.22Z" fill="white"/>
<path d="M358.908 298.276H149.138V83.046C149.138 37.2542 186.392 0 232.184 0H275.862C321.654 0 358.908 37.2542 358.908 83.046V298.276Z" fill="#F2F2F2"/>
<path d="M315.23 298.276H149.138V83.046C149.092 65.4996 154.648 48.3967 164.998 34.2274C165.379 33.7074 165.76 33.1941 166.152 32.6865C171.158 26.121 177.115 20.3389 183.827 15.531C184.206 15.2551 184.587 14.9841 184.973 14.713C190.589 10.8264 196.664 7.64928 203.06 5.25379C203.44 5.10983 203.827 4.96559 204.214 4.82724C209.998 2.76291 215.995 1.34886 222.092 0.611192C222.47 0.559554 222.858 0.519147 223.246 0.478739C229.188 -0.156589 235.181 -0.156589 241.123 0.478739C241.51 0.519147 241.898 0.559549 242.28 0.611745C248.376 1.34946 254.371 2.76334 260.154 4.82727C260.541 4.96562 260.928 5.10985 261.309 5.25409C267.626 7.61936 273.63 10.7491 279.186 14.5735C279.572 14.8387 279.958 15.1098 280.339 15.3809C284.101 18.0664 287.635 21.0582 290.904 24.3257C293.526 26.9466 295.969 29.7404 298.217 32.6882C298.608 33.1942 298.989 33.7074 299.37 34.2266C309.719 48.3961 315.276 65.4993 315.23 83.046V298.276Z" fill="#CCCCCC"/>
<path d="M301.724 202.012C306.803 202.012 310.919 197.895 310.919 192.816C310.919 187.738 306.803 183.621 301.724 183.621C296.646 183.621 292.529 187.738 292.529 192.816C292.529 197.895 296.646 202.012 301.724 202.012Z" fill="#E5E059"/>
<path d="M341.724 291.829H334.678L331.325 264.652L341.725 264.653L341.724 291.829Z" fill="#FFB8B8"/>
<path d="M329.645 289.816H343.233V298.372H321.089C321.089 297.248 321.31 296.136 321.74 295.098C322.17 294.06 322.8 293.116 323.595 292.322C324.389 291.527 325.332 290.897 326.37 290.467C327.408 290.037 328.521 289.816 329.645 289.816Z" fill="#2F2E41"/>
<path d="M376.781 291.829H369.735L366.383 264.652L376.782 264.653L376.781 291.829Z" fill="#FFB8B8"/>
<path d="M364.702 289.816H378.291V298.372H356.146C356.146 297.248 356.368 296.136 356.798 295.098C357.228 294.06 357.858 293.116 358.652 292.322C359.447 291.527 360.39 290.897 361.428 290.467C362.466 290.037 363.579 289.816 364.702 289.816Z" fill="#2F2E41"/>
<path d="M306.378 194.638C305.871 193.891 305.534 193.042 305.391 192.151C305.247 191.26 305.301 190.348 305.548 189.48C305.795 188.612 306.23 187.809 306.821 187.127C307.412 186.444 308.146 185.9 308.97 185.533L332.922 119.517L344.707 125.949L317.36 189.036C317.886 190.461 317.871 192.03 317.318 193.446C316.764 194.861 315.711 196.024 314.357 196.715C313.004 197.405 311.444 197.575 309.973 197.192C308.502 196.81 307.223 195.901 306.378 194.638Z" fill="#FFB8B8"/>
<path d="M373.182 207.042C372.399 206.593 371.724 205.978 371.204 205.24C370.685 204.502 370.333 203.659 370.175 202.771C370.016 201.882 370.054 200.969 370.287 200.097C370.519 199.225 370.94 198.414 371.519 197.722L364.099 127.889L377.512 128.502L380.595 197.192C381.693 198.243 382.368 199.66 382.491 201.174C382.614 202.689 382.178 204.196 381.264 205.41C380.35 206.624 379.022 207.461 377.533 207.762C376.043 208.063 374.495 207.807 373.182 207.042Z" fill="#FFB8B8"/>
<path d="M351.785 107.289C359.581 107.289 365.9 100.97 365.9 93.1739C365.9 85.3781 359.581 79.0583 351.785 79.0583C343.989 79.0583 337.669 85.3781 337.669 93.1739C337.669 100.97 343.989 107.289 351.785 107.289Z" fill="#FFB8B8"/>
<path d="M373.092 191.16H330.536L330.587 190.829C330.664 190.334 338.172 141.151 332.634 125.061C332.079 123.48 332.127 121.749 332.771 120.202C333.415 118.654 334.609 117.4 336.122 116.68H336.122C344.037 112.953 359.23 108.363 372.054 119.501C373.941 121.167 375.414 123.249 376.358 125.583C377.301 127.917 377.689 130.438 377.49 132.947L373.092 191.16Z" fill="#E5E059"/>
<path d="M338.709 148.42L319.55 144.533L328.531 123.251C329.068 121.19 330.401 119.426 332.238 118.347C334.074 117.267 336.263 116.96 338.326 117.492C340.388 118.024 342.156 119.353 343.24 121.187C344.324 123.02 344.637 125.209 344.109 127.273L338.709 148.42Z" fill="#E5E059"/>
<path d="M363.247 155.637L362.096 129.234C361.222 124.27 364.063 119.578 368.433 118.811C372.804 118.047 377.072 121.49 377.949 126.49L382.279 151.161L363.247 155.637Z" fill="#E5E059"/>
<path d="M371.676 187.999C378.523 214.078 379.27 247.234 377.423 283.402L368.228 282.252L351.561 213.287L342.366 283.402L332.021 282.827C328.93 244.879 325.921 212.301 330.871 190.873L371.676 187.999Z" fill="#2F2E41"/>
<path d="M361.086 104.083C358.452 106.888 353.562 105.382 353.219 101.55C353.192 101.252 353.194 100.953 353.225 100.656C353.402 98.9584 354.383 97.4173 354.148 95.625C354.094 95.179 353.928 94.7539 353.665 94.39C351.566 91.5801 346.641 95.6469 344.66 93.1031C343.446 91.5433 344.873 89.0875 343.941 87.3442C342.711 85.0433 339.068 86.1783 336.784 84.9182C334.242 83.5162 334.394 79.6164 336.067 77.2443C338.108 74.3514 341.686 72.8078 345.219 72.5853C348.752 72.3628 352.261 73.3179 355.559 74.6034C359.307 76.0639 363.023 78.0824 365.33 81.3778C368.134 85.3854 368.404 90.7732 367.002 95.4593C366.148 98.3099 363.236 101.792 361.086 104.083Z" fill="#2F2E41"/>
<path d="M482.748 298.646H58.4412C58.26 298.645 58.0865 298.573 57.9586 298.445C57.8307 298.316 57.7589 298.143 57.7589 297.961C57.7589 297.78 57.8307 297.607 57.9586 297.478C58.0865 297.35 58.26 297.278 58.4412 297.277H482.748C482.929 297.278 483.103 297.35 483.231 297.478C483.359 297.607 483.43 297.78 483.43 297.961C483.43 298.143 483.359 298.316 483.231 298.445C483.103 298.573 482.929 298.645 482.748 298.646Z" fill="#3F3D56"/>
<path d="M269.54 235.92H194.828C193.844 235.925 192.898 235.54 192.197 234.849C191.497 234.157 191.1 233.217 191.092 232.233V65.4686C191.1 64.4846 191.497 63.5439 192.197 62.8527C192.898 62.1615 193.844 61.7763 194.828 61.7816H269.54C270.524 61.7763 271.47 62.1615 272.17 62.8527C272.871 63.5439 273.268 64.4846 273.276 65.4686V232.233C273.268 233.217 272.871 234.157 272.17 234.849C271.47 235.54 270.524 235.925 269.54 235.92Z" fill="white"/>
<path d="M273.276 115.741H191.092V116.891H273.276V115.741Z" fill="#CCCCCC"/>
<path d="M273.563 181.322H191.379V182.471H273.563V181.322Z" fill="#CCCCCC"/>
<path d="M218.103 61.7816H216.954V236.494H218.103V61.7816Z" fill="#CCCCCC"/>
<path d="M246.839 61.7816H245.69V236.494H246.839V61.7816Z" fill="#CCCCCC"/>
</g>
<defs>
<clipPath id="clip0">
<rect width="500" height="298.93" fill="white"/>
</clipPath>
</defs>
</svg>
