<svg width="570" height="400" viewBox="0 0 570 400" fill="none" xmlns="http://www.w3.org/2000/svg">
<g clip-path="url(#clip0)">
<path opacity="0.1" d="M493.655 400C511.737 400 526.395 396.121 526.395 391.336C526.395 386.551 511.737 382.672 493.655 382.672C475.574 382.672 460.916 386.551 460.916 391.336C460.916 396.121 475.574 400 493.655 400Z" fill="#BDD358"/>
<path opacity="0.1" d="M547.651 354.35C535.194 364.651 517.469 368.914 500.326 371.607L497.441 372.045C479.536 374.707 461.432 376.125 443.267 376.987C433.547 377.456 423.827 377.787 414.108 378.083L406.491 378.307C396.601 378.6 386.692 378.887 376.764 379.169C367.044 379.444 357.325 379.703 347.605 379.944C335.157 380.247 322.709 380.498 310.261 380.699C300.542 380.852 290.822 380.957 281.102 381.015C268.651 381.086 256.203 381.063 243.758 380.944C234.032 380.845 224.312 380.675 214.599 380.434C202.145 380.114 189.697 379.647 177.256 379.031C168.811 378.62 160.372 378.125 151.938 377.547L148.097 377.277C111.894 374.677 75.0407 370.011 43.3598 355.263L42.5055 354.86C42.0809 354.661 41.6563 354.463 41.2317 354.254C35.4149 351.481 29.843 348.225 24.5753 344.519C15.2087 337.859 7.47389 329.731 3.38653 320.088C-3.0182 304.963 0.368323 287.962 7.68363 273.173C14.9989 258.385 25.9821 245.035 35.4818 231.109C38.2647 227.029 40.9043 222.797 43.3598 218.457C58.7066 191.242 66.3186 159.748 50.2301 133.522C48.1065 130.178 45.8134 126.944 43.3598 123.833C39.4362 118.734 35.446 113.634 32.7501 107.989C26.463 94.8535 27.8135 80.0806 30.1053 66.0471C33.1747 47.3885 38.8018 27.2918 56.3893 15.6347C74.6366 3.52876 100.537 4.14069 123.184 8.49555C158.394 15.2216 190.894 29.301 223.7 41.9984C256.506 54.6959 290.873 66.3072 326.943 67.5565C334.692 67.8208 342.449 67.5397 350.158 66.7151C360.434 65.6624 370.571 63.5344 380.401 60.3664C394.597 55.7056 407.514 48.6939 417.09 38.949C437.629 18.1181 476.227 16.5424 504.055 29.1225C530.611 41.1264 547.784 66.5315 546.515 91.906C545.072 120.151 523.853 143.374 504.408 167.193C502.05 170.079 499.723 172.976 497.456 175.893C496.191 177.521 494.95 179.153 493.732 180.788C491.599 183.674 489.537 186.576 487.593 189.513C477.659 204.572 470.635 222.659 477.475 238.916C481.311 248.018 488.632 254.964 497.456 261.027C517.228 274.606 544.52 283.744 556.797 302.755C567.376 319.139 563.458 341.255 547.651 354.35Z" fill="#BDD358"/>
<g opacity="0.1">
<path opacity="0.1" d="M284.172 280.134C284.192 280.613 284.228 281.083 284.279 281.542C288.259 279.961 292.166 278.261 295.999 276.442C298.045 276.172 299.946 275.244 301.416 273.801C302.537 273.24 303.652 272.653 304.757 272.067C304.507 271.539 304.223 271.028 303.908 270.537C301.754 267.146 298.48 265.025 294.873 265.142C291.267 265.259 288.146 267.59 286.218 271.103C284.738 273.877 284.031 276.996 284.172 280.134Z" fill="#3F3D56"/>
<path opacity="0.1" d="M283.583 262.302C283.66 265.426 284.57 268.475 286.218 271.134C288.377 274.515 291.651 276.636 295.257 276.519C295.508 276.519 295.769 276.483 295.999 276.463C298.044 276.192 299.946 275.265 301.416 273.821C302.414 272.875 303.255 271.777 303.908 270.568C305.351 267.792 306.055 264.693 305.953 261.568C305.851 258.443 304.946 255.396 303.324 252.72C301.166 249.329 297.892 247.207 294.285 247.325C290.679 247.442 287.563 249.772 285.635 253.286C284.156 256.055 283.448 259.168 283.583 262.302Z" fill="#3F3D56"/>
<path opacity="0.1" d="M294.667 258.687C300.842 258.485 305.634 251.789 305.368 243.73C305.103 235.671 299.881 229.302 293.706 229.504C287.53 229.706 282.739 236.403 283.005 244.462C283.27 252.52 288.491 258.889 294.667 258.687Z" fill="#3F3D56"/>
<path opacity="0.1" d="M294.08 240.858C300.256 240.656 305.047 233.959 304.782 225.901C304.516 217.842 299.295 211.473 293.119 211.675C286.944 211.877 282.153 218.574 282.418 226.632C282.683 234.691 287.905 241.06 294.08 240.858Z" fill="#3F3D56"/>
<path opacity="0.1" d="M293.494 223.024C299.669 222.822 304.46 216.125 304.195 208.066C303.93 200.007 298.708 193.638 292.533 193.84C286.357 194.042 281.566 200.739 281.831 208.798C282.097 216.857 287.318 223.226 293.494 223.024Z" fill="#3F3D56"/>
<path opacity="0.1" d="M330.872 85.0422C332.336 83.0542 333.659 80.9669 334.831 78.7955L305.294 74.9506L337.072 74.1449C339.902 67.4362 341.33 60.2222 341.266 52.9446C341.203 45.667 339.65 38.4788 336.704 31.8201L294.802 55.2517L333.169 25.1654C329.263 18.971 324.122 13.6425 318.064 9.51042C312.007 5.37832 305.163 2.5307 297.956 1.14413C290.75 -0.242438 283.334 -0.138383 276.169 1.44984C269.004 3.03806 262.243 6.07659 256.305 10.377C250.367 14.6774 245.378 20.148 241.649 26.4496C237.919 32.7511 235.528 39.7492 234.624 47.01C233.719 54.2707 234.321 61.6393 236.391 68.6587C238.461 75.6782 241.956 82.1988 246.659 87.8163C244.379 90.9114 242.439 94.2417 240.873 97.7499L279.654 116.25L238.546 103.981C235.968 112.487 235.559 121.5 237.355 130.204C239.151 138.907 243.096 147.027 248.833 153.828C242.882 161.907 239.331 171.492 238.587 181.488C237.843 191.484 239.935 201.487 244.625 210.353C249.316 219.219 256.414 226.591 265.109 231.625C273.804 236.66 283.744 239.154 293.794 238.822C303.844 238.49 313.597 235.346 321.939 229.749C330.281 224.152 336.874 216.329 340.965 207.173C345.057 198.017 346.481 187.898 345.075 177.973C343.669 168.048 339.49 158.717 333.015 151.049C340.131 141.399 343.789 129.646 343.4 117.676C343.011 105.706 338.599 94.2128 330.872 85.0422Z" fill="#BDD358"/>
<path opacity="0.1" d="M236.284 121.176C236.658 133.154 241.08 144.654 248.833 153.812C242.88 161.89 239.327 171.475 238.581 181.471C237.835 191.467 239.926 201.47 244.615 210.337C249.303 219.204 256.4 226.577 265.094 231.613C273.788 236.649 283.729 239.145 293.778 238.815C303.828 238.485 313.582 235.343 321.925 229.748C330.268 224.152 336.863 216.33 340.956 207.174C345.049 198.019 346.475 187.9 345.07 177.975C343.666 168.05 339.489 158.719 333.015 151.049C339.896 141.737 236.09 115.185 236.284 121.176Z" fill="black"/>
</g>
<g opacity="0.1">
<path opacity="0.1" d="M166.861 374.07C166.861 374.406 166.825 374.743 166.784 375.09C163.953 373.968 161.172 372.766 158.44 371.484C156.985 371.295 155.631 370.638 154.583 369.613C153.785 369.208 152.992 368.797 152.204 368.379C152.382 368.006 152.584 367.645 152.808 367.298C154.343 364.881 156.665 363.371 159.233 363.453C161.801 363.534 164.021 365.187 165.372 367.685C166.429 369.643 166.943 371.847 166.861 374.07Z" fill="#3F3D56"/>
<path opacity="0.1" d="M167.26 361.377C167.209 363.601 166.567 365.771 165.398 367.665C163.863 370.072 161.535 371.586 158.972 371.505L158.461 371.464C157.005 371.274 155.651 370.617 154.604 369.592C153.892 368.92 153.293 368.138 152.829 367.277C151.802 365.304 151.3 363.101 151.37 360.879C151.44 358.658 152.08 356.491 153.228 354.585C154.762 352.168 157.09 350.658 159.653 350.74C162.216 350.822 164.441 352.474 165.817 354.972C166.862 356.941 167.36 359.152 167.26 361.377Z" fill="#3F3D56"/>
<path opacity="0.1" d="M167.673 348.708C167.855 342.974 164.44 338.214 160.046 338.076C155.652 337.937 151.943 342.473 151.761 348.207C151.579 353.941 154.994 358.702 159.388 358.84C163.782 358.978 167.491 354.442 167.673 348.708Z" fill="#3F3D56"/>
<path opacity="0.1" d="M168.07 336.018C168.252 330.284 164.838 325.524 160.444 325.385C156.05 325.247 152.34 329.783 152.159 335.517C151.977 341.251 155.391 346.011 159.785 346.15C164.179 346.288 167.889 341.752 168.07 336.018Z" fill="#3F3D56"/>
<path opacity="0.1" d="M168.473 323.323C168.655 317.589 165.24 312.829 160.846 312.69C156.453 312.552 152.743 317.088 152.561 322.822C152.38 328.556 155.794 333.316 160.188 333.455C164.582 333.593 168.291 329.057 168.473 323.323Z" fill="#3F3D56"/>
<path opacity="0.1" d="M133.471 235.275C132.428 233.86 131.483 232.376 130.642 230.833L151.657 228.049L129.041 227.539C127.02 222.767 125.997 217.633 126.036 212.452C126.075 207.272 127.174 202.154 129.266 197.412L159.105 214.051L131.778 192.659C134.543 188.231 138.194 184.417 142.502 181.456C146.81 178.494 151.683 176.448 156.819 175.445C161.954 174.442 167.242 174.504 172.352 175.626C177.463 176.748 182.287 178.907 186.524 181.968C190.762 185.029 194.322 188.926 196.983 193.418C199.644 197.909 201.349 202.899 201.993 208.076C202.636 213.253 202.203 218.506 200.721 223.509C199.239 228.512 196.74 233.158 193.38 237.157C195.007 239.357 196.391 241.727 197.508 244.224L169.925 257.421L199.171 248.651C201.011 254.703 201.31 261.118 200.04 267.314C198.77 273.511 195.971 279.294 191.896 284.142C196.14 289.885 198.678 296.703 199.218 303.816C199.758 310.929 198.28 318.05 194.951 324.365C191.623 330.679 186.58 335.933 180.397 339.525C174.215 343.117 167.143 344.903 159.991 344.678C152.839 344.452 145.894 342.225 139.952 338.252C134.009 334.278 129.308 328.717 126.387 322.205C123.465 315.694 122.44 308.494 123.43 301.429C124.419 294.365 127.383 287.72 131.982 282.255C126.911 275.393 124.301 267.03 124.571 258.511C124.841 249.992 127.975 241.81 133.471 235.28V235.275Z" fill="#BDD358"/>
<path opacity="0.1" d="M200.792 260.904C200.536 269.428 197.402 277.616 191.896 284.142C196.14 289.886 198.678 296.703 199.218 303.816C199.758 310.929 198.28 318.05 194.951 324.365C191.623 330.679 186.58 335.933 180.397 339.525C174.215 343.117 167.143 344.903 159.991 344.678C152.839 344.453 145.894 342.226 139.952 338.252C134.009 334.278 129.308 328.717 126.387 322.205C123.465 315.694 122.44 308.494 123.43 301.43C124.419 294.365 127.383 287.72 131.982 282.256C127.077 275.626 200.936 256.636 200.792 260.904Z" fill="black"/>
</g>
<g opacity="0.1">
<path opacity="0.1" d="M433.266 307.752C433.266 308.094 433.23 308.425 433.194 308.772C430.36 307.65 427.579 306.448 424.851 305.167C423.394 304.976 422.038 304.32 420.988 303.295C420.195 302.893 419.397 302.479 418.61 302.061C418.789 301.69 418.991 301.329 419.213 300.98C420.748 298.563 423.07 297.054 425.638 297.135C428.206 297.217 430.427 298.869 431.777 301.368C432.834 303.326 433.348 305.53 433.266 307.752Z" fill="#3F3D56"/>
<path opacity="0.1" d="M433.695 295.06C433.644 297.284 432.999 299.454 431.828 301.348C430.294 303.754 427.971 305.269 425.403 305.187L424.891 305.147C423.435 304.956 422.079 304.299 421.029 303.275C420.32 302.601 419.721 301.819 419.254 300.96C418.228 298.986 417.726 296.784 417.796 294.562C417.866 292.34 418.505 290.173 419.653 288.268C421.188 285.856 423.515 284.341 426.078 284.423C428.641 284.504 430.872 286.156 432.243 288.655C433.291 290.623 433.793 292.834 433.695 295.06Z" fill="#3F3D56"/>
<path opacity="0.1" d="M434.095 282.387C434.277 276.653 430.862 271.893 426.468 271.754C422.074 271.616 418.365 276.152 418.183 281.886C418.002 287.62 421.416 292.38 425.81 292.519C430.204 292.657 433.913 288.121 434.095 282.387Z" fill="#3F3D56"/>
<path opacity="0.1" d="M434.498 269.697C434.68 263.963 431.265 259.202 426.871 259.064C422.477 258.926 418.768 263.462 418.586 269.196C418.404 274.93 421.819 279.69 426.213 279.828C430.607 279.967 434.316 275.431 434.498 269.697Z" fill="#3F3D56"/>
<path opacity="0.1" d="M434.9 257.007C435.082 251.273 431.668 246.512 427.274 246.374C422.88 246.236 419.171 250.772 418.989 256.506C418.807 262.24 422.222 267 426.615 267.139C431.009 267.277 434.719 262.741 434.9 257.007Z" fill="#3F3D56"/>
<path opacity="0.1" d="M399.876 168.958C398.832 167.545 397.888 166.061 397.052 164.516L418.067 161.757L395.451 161.212C393.431 156.439 392.408 151.306 392.446 146.125C392.484 140.945 393.581 135.827 395.671 131.085L425.51 147.724L398.183 126.342C400.944 121.903 404.592 118.078 408.902 115.107C413.211 112.135 418.088 110.081 423.23 109.072C428.371 108.063 433.665 108.121 438.783 109.242C443.901 110.363 448.732 112.523 452.975 115.588C457.218 118.653 460.781 122.556 463.444 127.055C466.106 131.554 467.81 136.551 468.449 141.735C469.088 146.92 468.649 152.18 467.158 157.187C465.667 162.194 463.157 166.842 459.785 170.839C461.411 173.04 462.793 175.41 463.908 177.907L436.325 191.104L465.571 182.333C467.414 188.385 467.714 194.799 466.444 200.995C465.174 207.192 462.374 212.974 458.296 217.82C462.541 223.562 465.079 230.379 465.62 237.491C466.161 244.604 464.683 251.724 461.356 258.039C458.028 264.353 452.985 269.607 446.803 273.199C440.621 276.791 433.55 278.577 426.398 278.352C419.246 278.126 412.302 275.899 406.36 271.925C400.418 267.951 395.718 262.391 392.797 255.879C389.876 249.368 388.852 242.169 389.843 235.104C390.833 228.04 393.798 221.397 398.398 215.933C393.326 209.07 390.716 200.708 390.986 192.188C391.256 183.669 394.39 175.487 399.886 168.958H399.876Z" fill="#BDD358"/>
<path opacity="0.1" d="M467.203 194.587C466.946 203.11 463.81 211.296 458.301 217.82C462.545 223.562 465.082 230.379 465.623 237.491C466.163 244.603 464.685 251.723 461.357 258.037C458.03 264.351 452.987 269.605 446.805 273.196C440.623 276.788 433.553 278.574 426.401 278.348C419.25 278.123 412.306 275.896 406.364 271.923C400.422 267.949 395.722 262.389 392.801 255.878C389.88 249.367 388.855 242.168 389.845 235.104C390.835 228.041 393.799 221.397 398.398 215.933C393.487 209.309 467.336 190.314 467.203 194.587Z" fill="black"/>
</g>
<path d="M98.9869 388.496C115.094 388.496 128.151 385.994 128.151 382.907C128.151 379.82 115.094 377.318 98.9869 377.318C82.88 377.318 69.8228 379.82 69.8228 382.907C69.8228 385.994 82.88 388.496 98.9869 388.496Z" fill="#BDD358"/>
<path d="M98.5009 384.962C100.377 384.962 101.898 382.978 101.898 380.531C101.898 378.083 100.377 376.099 98.5009 376.099C96.6249 376.099 95.1041 378.083 95.1041 380.531C95.1041 382.978 96.6249 384.962 98.5009 384.962Z" fill="#3F3D56"/>
<path d="M98.5009 379.546C100.377 379.546 101.898 377.562 101.898 375.115C101.898 372.668 100.377 370.684 98.5009 370.684C96.6249 370.684 95.1041 372.668 95.1041 375.115C95.1041 377.562 96.6249 379.546 98.5009 379.546Z" fill="#3F3D56"/>
<path d="M98.5009 374.131C100.377 374.131 101.898 372.147 101.898 369.7C101.898 367.252 100.377 365.268 98.5009 365.268C96.6249 365.268 95.1041 367.252 95.1041 369.7C95.1041 372.147 96.6249 374.131 98.5009 374.131Z" fill="#3F3D56"/>
<path d="M98.5009 368.715C100.377 368.715 101.898 366.731 101.898 364.284C101.898 361.837 100.377 359.853 98.5009 359.853C96.6249 359.853 95.1041 361.837 95.1041 364.284C95.1041 366.731 96.6249 368.715 98.5009 368.715Z" fill="#3F3D56"/>
<path d="M98.5009 363.3C100.377 363.3 101.898 361.316 101.898 358.868C101.898 356.421 100.377 354.437 98.5009 354.437C96.6249 354.437 95.1041 356.421 95.1041 358.868C95.1041 361.316 96.6249 363.3 98.5009 363.3Z" fill="#3F3D56"/>
<path d="M98.5009 357.884C100.377 357.884 101.898 355.9 101.898 353.453C101.898 351.006 100.377 349.022 98.5009 349.022C96.6249 349.022 95.1041 351.006 95.1041 353.453C95.1041 355.9 96.6249 357.884 98.5009 357.884Z" fill="#3F3D56"/>
<path d="M98.5009 352.469C100.377 352.469 101.898 350.485 101.898 348.037C101.898 345.59 100.377 343.606 98.5009 343.606C96.6249 343.606 95.1041 345.59 95.1041 348.037C95.1041 350.485 96.6249 352.469 98.5009 352.469Z" fill="#3F3D56"/>
<path d="M111.213 310.975C111.676 310.386 112.098 309.766 112.477 309.119L103.555 307.655L113.203 307.732C114.128 305.724 114.633 303.548 114.687 301.339C114.741 299.129 114.342 296.932 113.515 294.881L100.568 301.577L112.507 292.811C111.388 290.886 109.883 289.211 108.086 287.89C106.289 286.569 104.238 285.632 102.062 285.135C99.8856 284.639 97.6301 284.594 95.4357 285.004C93.2414 285.414 91.1552 286.27 89.307 287.518C87.4588 288.767 85.8882 290.381 84.6929 292.261C83.4976 294.14 82.7033 296.245 82.3594 298.444C82.0154 300.643 82.1292 302.889 82.6936 305.042C83.2581 307.195 84.2611 309.21 85.6402 310.96C84.9188 311.877 84.298 312.868 83.7884 313.917L95.3701 319.914L83.0211 315.784C82.1536 318.339 81.9388 321.069 82.3961 323.728C82.8534 326.386 83.9684 328.89 85.6402 331.011C83.7538 333.403 82.5805 336.276 82.2546 339.301C81.9287 342.327 82.4633 345.382 83.7974 348.119C85.1314 350.856 87.211 353.164 89.7984 354.778C92.3859 356.392 95.3768 357.248 98.4292 357.248C101.482 357.248 104.473 356.392 107.06 354.778C109.648 353.164 111.727 350.856 113.061 348.119C114.395 345.382 114.93 342.327 114.604 339.301C114.278 336.276 113.105 333.403 111.218 331.011C113.472 328.152 114.697 324.621 114.697 320.985C114.697 317.349 113.472 313.819 111.218 310.96L111.213 310.975Z" fill="#BDD358"/>
<path opacity="0.1" d="M82.1616 321.001C82.1557 324.637 83.3813 328.17 85.6402 331.026C83.7537 333.418 82.5805 336.291 82.2546 339.316C81.9287 342.342 82.4633 345.398 83.7974 348.134C85.1314 350.871 87.211 353.179 89.7984 354.793C92.3858 356.408 95.3768 357.264 98.4292 357.264C101.482 357.264 104.473 356.408 107.06 354.793C109.648 353.179 111.727 350.871 113.061 348.134C114.395 345.398 114.93 342.342 114.604 339.316C114.278 336.291 113.105 333.418 111.218 331.026C113.392 328.267 82.1616 319.18 82.1616 321.001Z" fill="black"/>
<path d="M177.256 263.745V378.991C168.811 378.579 160.372 378.085 151.938 377.507L148.097 377.236V263.745C148.097 263.154 148.213 262.569 148.44 262.024C148.667 261.478 148.999 260.982 149.418 260.564C149.837 260.147 150.335 259.815 150.882 259.589C151.429 259.363 152.016 259.247 152.609 259.247H172.744C173.336 259.247 173.923 259.363 174.47 259.589C175.018 259.815 175.515 260.147 175.934 260.564C176.353 260.982 176.685 261.478 176.912 262.024C177.139 262.569 177.256 263.154 177.256 263.745Z" fill="#3F3D56"/>
<path d="M214.599 380.424V186.744C214.599 185.551 215.075 184.407 215.921 183.564C216.767 182.72 217.915 182.247 219.111 182.247H239.246C239.839 182.247 240.426 182.363 240.973 182.589C241.52 182.815 242.018 183.146 242.437 183.564C242.856 183.982 243.188 184.477 243.415 185.023C243.642 185.569 243.758 186.154 243.758 186.744V380.928L214.599 380.424Z" fill="#3F3D56"/>
<path d="M281.102 381.03V227.029C281.102 225.836 281.578 224.692 282.424 223.849C283.27 223.005 284.417 222.532 285.614 222.532H305.749C306.946 222.532 308.093 223.005 308.94 223.849C309.786 224.692 310.261 225.836 310.261 227.029V380.699L281.102 381.03Z" fill="#3F3D56"/>
<path d="M376.764 112.803V379.169C367.044 379.444 357.325 379.703 347.605 379.944V112.803C347.605 111.61 348.08 110.466 348.927 109.623C349.773 108.779 350.92 108.306 352.117 108.306H372.252C373.449 108.306 374.596 108.779 375.442 109.623C376.289 110.466 376.764 111.61 376.764 112.803Z" fill="#3F3D56"/>
<path d="M443.267 166.347V376.951C433.547 377.42 423.827 377.751 414.108 378.047V166.347C414.108 165.154 414.583 164.01 415.429 163.166C416.275 162.323 417.423 161.849 418.62 161.849H438.755C439.951 161.849 441.099 162.323 441.945 163.166C442.791 164.01 443.267 165.154 443.267 166.347Z" fill="#3F3D56"/>
<path d="M162.932 196.535L229.435 122.594L295.937 159.819L362.44 45.5935L428.943 100.157" stroke="#3F3D56" stroke-width="7" stroke-miterlimit="10" stroke-linecap="round"/>
<path d="M162.676 210.813C170.587 210.813 177 204.421 177 196.535C177 188.649 170.587 182.257 162.676 182.257C154.765 182.257 148.352 188.649 148.352 196.535C148.352 204.421 154.765 210.813 162.676 210.813Z" fill="#BDD358"/>
<path d="M229.179 136.872C237.09 136.872 243.503 130.48 243.503 122.594C243.503 114.708 237.09 108.316 229.179 108.316C221.268 108.316 214.855 114.708 214.855 122.594C214.855 130.48 221.268 136.872 229.179 136.872Z" fill="#BDD358"/>
<path d="M295.682 174.098C303.592 174.098 310.005 167.705 310.005 159.82C310.005 151.934 303.592 145.541 295.682 145.541C287.771 145.541 281.358 151.934 281.358 159.82C281.358 167.705 287.771 174.098 295.682 174.098Z" fill="#BDD358"/>
<path d="M362.184 59.8718C370.095 59.8718 376.508 53.4792 376.508 45.5936C376.508 37.7079 370.095 31.3153 362.184 31.3153C354.274 31.3153 347.861 37.7079 347.861 45.5936C347.861 53.4792 354.274 59.8718 362.184 59.8718Z" fill="#BDD358"/>
<path d="M490.074 181.237C497.985 181.237 504.398 174.844 504.398 166.959C504.398 159.073 497.985 152.68 490.074 152.68C482.164 152.68 475.751 159.073 475.751 166.959C475.751 174.844 482.164 181.237 490.074 181.237Z" fill="#BDD358"/>
<path opacity="0.1" d="M119.541 370.097C124.819 370.097 129.097 369.376 129.097 368.486C129.097 367.596 124.819 366.875 119.541 366.875C114.264 366.875 109.985 367.596 109.985 368.486C109.985 369.376 114.264 370.097 119.541 370.097Z" fill="#BDD358"/>
<path d="M113.126 361.005C113.126 361.005 118.574 360.837 120.217 359.669C121.859 358.501 128.601 357.119 129.01 358.981C129.42 360.842 137.195 368.282 131.057 368.333C124.918 368.384 116.758 367.374 115.121 366.38C113.484 365.385 113.126 361.005 113.126 361.005Z" fill="#A8A8A8"/>
<path opacity="0.2" d="M131.154 367.68C125.015 367.731 116.861 366.727 115.219 365.732C113.97 364.972 113.474 362.254 113.305 361H113.126C113.126 361 113.469 365.38 115.111 366.375C116.753 367.369 124.892 368.379 131.046 368.328C132.821 368.328 133.435 367.685 133.399 366.752C133.154 367.318 132.479 367.67 131.154 367.68Z" fill="black"/>
<path opacity="0.1" d="M544.198 385.11C553.891 385.11 561.749 383.786 561.749 382.152C561.749 380.519 553.891 379.195 544.198 379.195C534.504 379.195 526.646 380.519 526.646 382.152C526.646 383.786 534.504 385.11 544.198 385.11Z" fill="#BDD358"/>
<path d="M532.427 368.409C532.427 368.409 542.438 368.103 545.456 365.962C548.474 363.82 560.854 361.265 561.601 364.697C562.348 368.129 576.651 381.78 565.345 381.872C554.04 381.964 539.082 380.118 536.069 378.302C533.056 376.487 532.427 368.409 532.427 368.409Z" fill="#A8A8A8"/>
<path opacity="0.2" d="M565.535 380.678C554.229 380.77 539.271 378.924 536.258 377.109C533.966 375.717 533.051 370.719 532.744 368.44H532.411C532.411 368.44 533.045 376.492 536.053 378.317C539.061 380.143 554.03 381.994 565.33 381.887C568.594 381.887 569.719 380.704 569.658 378.991C569.203 380.01 567.959 380.658 565.535 380.678Z" fill="black"/>
<path d="M434.621 175.714C434.716 176.607 435.072 177.453 435.644 178.147C436.386 178.983 437.496 179.365 438.494 179.865C441.075 181.182 443.047 183.442 443.998 186.173C445.702 191.13 445.922 196.372 448.091 201.155C450.26 205.938 452.807 210.533 454.68 215.433C455.744 218.212 456.593 221.104 458.153 223.633C458.908 224.877 459.872 225.983 461.003 226.902C460.885 228.697 460.839 230.471 460.849 232.266C461.195 232.259 461.536 232.34 461.842 232.501C462.148 232.661 462.409 232.896 462.599 233.184C462.977 233.766 463.238 234.415 463.366 235.096C464.067 237.988 463.202 241.068 463.831 243.974C465.56 252.06 465.029 260.463 462.297 268.268C461.596 270.246 460.716 276.794 461.463 278.757C464.246 278.477 466.712 280.18 469.315 281.307C469.526 282.845 469.4 284.411 468.947 285.896C468.011 288.584 468.016 291.506 468.031 294.346L468.159 315.386C468.159 318.053 468.195 320.756 468.865 323.341C469.627 326.253 471.229 329.221 471.177 332.229C471.039 338.706 474.109 344.876 473.863 351.301C473.817 352.535 473.648 353.759 473.531 354.983C473.229 358.243 473.311 361.527 473.776 364.768C474.707 371.224 477.168 377.573 476.554 384.064C476.513 384.503 476.365 385.084 475.95 385.253C476.462 385.829 477.004 386.4 477.557 386.946C477.445 387.131 477.293 387.29 477.112 387.41C476.507 387.724 475.839 387.899 475.157 387.92C474.358 387.941 473.581 388.192 472.922 388.644C472.443 389.102 472.117 389.697 471.991 390.347C471.809 390.989 471.77 391.663 471.876 392.322C471.982 392.98 472.23 393.608 472.605 394.161C473.061 394.734 473.659 395.18 474.339 395.456C476.702 396.476 479.414 395.737 481.879 394.992L491.538 392.076C492.127 391.954 492.67 391.671 493.108 391.26C493.308 391.024 493.441 390.738 493.492 390.434C495.625 390.944 497.968 390.316 500.142 389.669L509.8 386.747C510.39 386.627 510.934 386.344 511.371 385.931C511.545 385.72 511.67 385.474 511.738 385.209C511.806 384.945 511.815 384.669 511.765 384.401C511.836 384.37 511.908 384.35 511.98 384.314C512.716 383.983 513.514 383.335 513.335 382.555C513.207 382.045 512.696 381.749 512.476 381.28C512.372 380.975 512.351 380.648 512.414 380.332C512.477 380.017 512.621 379.723 512.834 379.48C513.212 378.97 513.724 378.547 514.072 378.012C515.187 376.308 514.43 374.07 514.01 372.076C513.105 367.818 513.944 363.371 513.371 359.057C513.177 357.604 512.824 356.176 512.542 354.733C511.946 351.322 511.551 347.879 511.36 344.422C510.992 339.486 509.616 334.621 510.404 329.726C510.786 326.852 510.949 323.954 510.89 321.057C510.946 319.211 510.865 317.363 510.649 315.529C510.45 314.162 510.097 312.821 509.944 311.449C509.819 309.907 509.792 308.359 509.862 306.814C509.932 303.369 509.613 299.928 508.91 296.554C507.887 291.919 505.964 287.482 505.145 282.837C505.421 282.898 505.698 282.959 505.964 283.031C505.994 279.461 502.858 271.7 501.697 268.314C501.527 267.899 501.424 267.46 501.39 267.013C501.46 266.424 501.568 265.84 501.712 265.264C501.861 264.03 501.201 262.857 501.022 261.623C500.952 260.755 501.016 259.882 501.211 259.033C502.035 254.469 503.058 249.941 504.081 245.418C504.527 243.779 504.681 242.076 504.536 240.384C504.417 239.488 504.493 238.577 504.758 237.712C505.022 236.847 505.47 236.049 506.071 235.372C506.52 234.958 506.903 234.479 507.207 233.949C507.377 233.495 507.453 233.011 507.432 232.526C507.411 230.429 507.102 228.344 506.511 226.331C507.411 224.704 507.744 222.705 508.005 220.818C508.578 216.652 509.151 212.465 509.13 208.258C509.176 206.014 508.865 203.777 508.209 201.629C507.73 200.303 507.145 199.017 506.46 197.784C503.769 192.619 501.196 187.183 497.799 182.45C496.776 181.012 497.421 179.029 497.492 177.254C497.569 175.112 496.72 173.057 495.886 171.089C495.46 169.878 494.808 168.758 493.962 167.79C493.676 167.476 493.329 167.224 492.942 167.049C492.555 166.873 492.137 166.778 491.711 166.77C491.23 166.829 490.766 166.99 490.353 167.242C489.939 167.495 489.584 167.833 489.312 168.233C488.694 169.073 488.248 170.027 488.001 171.04C487.755 172.053 487.712 173.104 487.875 174.133C488.215 176.194 489.115 178.122 490.479 179.707C491.137 180.505 491.891 181.219 492.724 181.833C493.57 184.512 494.423 187.189 495.282 189.865C496.633 194.123 497.983 198.401 499.886 202.43C500.444 203.598 501.058 204.786 501.124 206.076C501.196 207.468 500.613 208.794 500.147 210.104C499.166 212.836 498.611 215.701 498.5 218.6C498.35 218.666 498.207 218.745 498.07 218.835C496.459 219.885 495.952 222.175 494.274 223.113C493.297 223.659 492.11 223.623 491.016 223.873C490.919 223.873 490.821 223.924 490.719 223.954C490.678 223.75 490.637 223.551 490.612 223.342C490.596 223.212 490.596 223.08 490.612 222.95C493.22 221.52 495.411 219.44 496.97 216.912C497.299 216.444 497.553 215.928 497.722 215.382C497.86 214.728 497.886 214.056 497.799 213.393C497.714 211.182 497.396 208.986 496.853 206.841C496.307 204.685 495.113 202.747 493.43 201.288C492.591 200.614 491.625 200.11 490.791 199.431C489.164 198.121 488.049 196.183 486.187 195.209C485.002 194.634 483.65 194.499 482.374 194.828C481.098 195.156 479.981 195.928 479.224 197.004C478.977 197.502 478.628 197.943 478.201 198.299C477.875 198.453 477.558 198.623 477.25 198.809C476.687 199.258 476.656 200.12 476.84 200.818C477.19 202.254 477.385 203.722 477.424 205.199C475.773 207.13 474.863 209.583 474.858 212.121C474.852 214.658 475.75 217.115 477.393 219.054C477.393 220.002 477.393 220.951 477.357 221.899C477.357 222.078 477.357 222.261 477.321 222.44C476.731 222.235 476.203 221.884 475.787 221.42C475.214 220.706 475.111 219.656 474.411 219.069C473.907 218.738 473.332 218.528 472.733 218.457C471.243 218.12 469.846 217.46 468.64 216.524C467.694 215.795 466.712 214.862 465.607 214.648C463.7 211.083 461.474 207.697 458.956 204.531C458.318 203.781 457.736 202.985 457.217 202.149C456.117 200.237 455.79 197.988 455.094 195.892C453.15 190.018 448.3 185.306 447.119 179.228C446.689 177.025 445.287 175.107 444.326 173.078C443.676 171.706 442.96 170.258 441.66 169.473C439.988 168.453 437.675 168.922 436.284 170.294C435.61 171.011 435.11 171.872 434.822 172.812C434.534 173.751 434.465 174.744 434.621 175.714ZM495.359 382.081C494.754 382.395 494.086 382.57 493.405 382.591C493.061 382.626 492.719 382.681 492.382 382.754C492.254 381.683 492.182 380.597 492.1 379.541C491.829 376.079 491.287 372.642 490.75 369.21C490.187 365.64 489.921 361.734 488.704 358.308C486.744 352.729 484.759 346.982 485.01 341.072C485.066 339.73 485.235 338.4 485.307 337.064C485.47 333.754 485.005 330.373 485.818 327.155C486.182 325.692 486.801 324.295 487.036 322.806C487.186 321.461 487.203 320.105 487.087 318.757C486.863 314.077 487.254 309.389 488.248 304.81C489.2 306.049 489.512 307.65 489.783 309.185L491.701 319.557C492.842 325.712 493.85 332.24 496.873 337.716C496.449 339.69 496.029 341.796 496.73 343.683C497.032 344.498 497.528 345.212 497.835 346.038C498.346 347.41 498.275 348.92 498.428 350.373C498.761 353.433 500.029 356.441 499.098 359.394C498.141 362.438 497.518 365.577 497.241 368.756C497.191 369.64 497.088 370.52 496.935 371.393C496.771 372.178 496.505 372.922 496.356 373.728C496.152 374.859 496.203 376.021 496.505 377.129C496.735 377.744 496.876 378.388 496.924 379.042C496.924 379.694 496.121 380.163 495.477 380.265C495.666 380.51 495.87 380.745 496.08 380.974C495.957 381.407 495.706 381.793 495.359 382.081Z" fill="url(#paint0_linear)"/>
<path d="M475.157 387.965C474.358 387.986 473.581 388.238 472.922 388.69C472.441 389.142 472.115 389.735 471.991 390.383C471.809 391.02 471.77 391.689 471.876 392.342C471.982 392.996 472.231 393.619 472.605 394.166C473.062 394.738 473.659 395.182 474.339 395.456C476.702 396.476 479.413 395.732 481.879 394.992L491.537 392.096C492.126 391.976 492.67 391.695 493.108 391.285C493.374 390.928 493.521 390.497 493.528 390.053C493.535 389.608 493.403 389.172 493.149 388.807C492.63 388.087 491.922 387.524 491.103 387.18C488.1 385.722 484.713 385.39 481.414 385.329C480.186 385.329 478.974 385.033 478.14 385.977C477.7 386.487 477.782 387.032 477.117 387.466C476.509 387.775 475.839 387.946 475.157 387.965Z" fill="#3F3D56"/>
<path d="M493.405 382.672C492.605 382.696 491.829 382.947 491.169 383.397C490.689 383.85 490.364 384.442 490.238 385.09C490.057 385.727 490.018 386.397 490.124 387.052C490.23 387.706 490.479 388.33 490.852 388.878C491.311 389.447 491.908 389.889 492.586 390.163C494.955 391.183 497.661 390.444 500.127 389.704L509.785 386.803C510.374 386.683 510.917 386.402 511.355 385.992C511.621 385.636 511.767 385.206 511.775 384.762C511.782 384.318 511.65 383.884 511.396 383.519C510.877 382.8 510.169 382.237 509.35 381.892C506.342 380.434 502.955 380.097 499.656 380.036C498.428 380.036 497.221 379.745 496.382 380.689C495.942 381.199 496.024 381.739 495.359 382.173C494.754 382.486 494.086 382.657 493.405 382.672Z" fill="#3F3D56"/>
<path d="M485.01 278.186C490.702 277.616 496.427 277.456 502.142 277.707C502.519 277.703 502.894 277.762 503.252 277.88C504.511 278.39 504.705 280.032 504.823 281.373C505.334 286.819 507.718 291.893 508.915 297.227C509.618 300.58 509.937 304.001 509.867 307.426C509.798 308.956 509.825 310.489 509.949 312.015C510.102 313.377 510.46 314.713 510.654 316.069C510.87 317.892 510.951 319.727 510.895 321.561C510.953 324.437 510.791 327.313 510.409 330.164C509.621 335.024 510.997 339.853 511.366 344.769C511.549 348.207 511.937 351.631 512.527 355.024C512.808 356.456 513.161 357.874 513.355 359.317C513.928 363.606 513.089 368.022 513.995 372.254C514.414 374.233 515.172 376.456 514.056 378.149C513.708 378.659 513.197 379.093 512.818 379.608C512.606 379.848 512.461 380.14 512.398 380.455C512.335 380.769 512.357 381.094 512.46 381.398C512.68 381.862 513.192 382.168 513.32 382.662C513.519 383.442 512.701 384.08 511.964 384.411C506.414 386.91 499.257 385.151 495.512 380.362C496.157 380.26 496.945 379.796 496.96 379.144C496.911 378.495 496.77 377.856 496.541 377.247C496.239 376.146 496.189 374.993 496.392 373.871C496.541 373.086 496.807 372.341 496.97 371.551C497.124 370.684 497.226 369.808 497.277 368.93C497.554 365.771 498.177 362.652 499.134 359.628C500.065 356.696 498.796 353.728 498.464 350.669C498.311 349.22 498.377 347.726 497.871 346.36C497.564 345.554 497.067 344.83 496.766 344.024C496.065 342.143 496.484 340.052 496.909 338.094C493.886 332.653 492.878 326.166 491.737 320.052L489.819 309.751C489.532 308.221 489.22 306.636 488.284 305.402C487.29 309.949 486.899 314.607 487.123 319.257C487.239 320.596 487.222 321.944 487.072 323.28C486.836 324.759 486.217 326.151 485.854 327.599C485.061 330.796 485.527 334.152 485.342 337.441C485.271 338.772 485.102 340.093 485.046 341.424C484.795 347.298 486.78 353.009 488.739 358.552C489.941 361.954 490.207 365.819 490.785 369.378C491.297 372.79 491.865 376.201 492.136 379.643C492.387 382.805 492.499 386.227 494.474 388.71C492.668 389.878 490.806 391.066 488.693 391.469C486.231 391.853 483.712 391.366 481.572 390.092C479.445 388.824 477.543 387.213 475.945 385.324C476.359 385.181 476.508 384.58 476.549 384.146C477.163 377.69 474.702 371.398 473.771 364.972C473.306 361.754 473.223 358.491 473.525 355.253C473.643 354.034 473.812 352.816 473.858 351.592C474.103 345.212 471.019 339.068 471.131 332.683C471.182 329.69 469.597 326.742 468.819 323.851C468.149 321.301 468.128 318.599 468.113 315.947L467.985 295.04C467.985 292.215 467.985 289.318 468.901 286.651C470.026 283.439 468.737 279.752 468.543 276.355C473.859 278.035 479.454 278.657 485.01 278.186Z" fill="#696791"/>
<path d="M466.773 218.116C464.623 213.734 461.996 209.601 458.941 205.79C458.302 205.046 457.721 204.255 457.202 203.424C456.102 201.522 455.774 199.289 455.079 197.208C453.135 191.374 448.285 186.688 447.103 180.656C446.674 178.463 445.272 176.576 444.31 174.536C443.661 173.175 442.944 171.737 441.645 170.967C439.972 169.947 437.66 170.416 436.269 171.783C435.599 172.494 435.102 173.349 434.817 174.281C434.531 175.214 434.464 176.2 434.621 177.162C434.717 178.051 435.073 178.891 435.644 179.58C436.386 180.411 437.496 180.788 438.494 181.288C441.071 182.59 443.044 184.836 443.998 187.555C445.702 192.476 445.922 197.687 448.091 202.44C450.26 207.193 452.807 211.752 454.68 216.611C455.744 219.37 456.593 222.221 458.153 224.77C459.713 227.32 462.148 229.457 465.09 229.839C465.07 227.991 465.352 226.151 465.924 224.393C466.563 222.384 467.699 220.018 466.773 218.116Z" fill="#A0616A"/>
<path d="M498.444 221.93C498.312 218.324 498.877 214.727 500.106 211.333C500.577 210.033 501.129 208.712 501.083 207.33C501.017 206.045 500.403 204.867 499.845 203.705C497.922 199.702 496.571 195.459 495.241 191.226L492.683 183.246C491.849 182.636 491.095 181.925 490.438 181.13C489.074 179.558 488.173 177.642 487.834 175.592C487.671 174.57 487.714 173.526 487.961 172.52C488.207 171.515 488.653 170.569 489.271 169.738C489.544 169.338 489.899 169.002 490.313 168.75C490.727 168.498 491.189 168.338 491.671 168.279C492.095 168.289 492.514 168.384 492.901 168.559C493.288 168.734 493.635 168.986 493.921 169.299C494.765 170.259 495.418 171.37 495.845 172.573C496.679 174.531 497.528 176.571 497.451 178.692C497.38 180.457 496.72 182.425 497.758 183.858C501.155 188.56 503.728 193.96 506.419 199.095C507.105 200.318 507.69 201.596 508.168 202.914C508.825 205.051 509.136 207.278 509.089 209.513C509.089 213.689 508.537 217.85 507.964 221.991C507.601 224.587 507.125 227.412 505.155 229.13C503.109 226.519 501.053 223.97 498.444 221.93Z" fill="#A0616A"/>
<path d="M485.429 223.919C491.292 223.919 496.044 219.181 496.044 213.337C496.044 207.494 491.292 202.756 485.429 202.756C479.567 202.756 474.815 207.494 474.815 213.337C474.815 219.181 479.567 223.919 485.429 223.919Z" fill="#A0616A"/>
<path d="M490.571 224.48C490.826 226.392 491.855 228.105 492.857 229.757C493.461 230.777 494.233 231.863 495.415 231.976C492.34 233.585 489.109 234.88 485.772 235.841C484.638 236.221 483.449 236.412 482.253 236.407C481.239 236.332 480.246 236.078 479.321 235.657C477.298 234.779 475.502 233.454 474.067 231.783C472.632 230.112 471.597 228.138 471.039 226.009C472.361 226.044 473.683 225.944 474.983 225.708C475.726 225.652 476.419 225.312 476.917 224.76C477.214 224.243 477.352 223.651 477.316 223.057C477.367 221.292 477.372 219.523 477.316 217.759C479.924 217.593 482.541 217.914 485.03 218.707C486.054 219.038 487.077 219.436 488.1 219.696C488.744 219.859 490.519 219.696 490.995 220.069C491.778 220.594 490.392 223.179 490.571 224.48Z" fill="#A0616A"/>
<path d="M485.905 230.91C486.022 229.516 486.575 228.194 487.488 227.131C488.401 226.068 489.626 225.319 490.99 224.99C492.085 224.745 493.272 224.775 494.249 224.235C495.927 223.302 496.433 221.027 498.044 219.982C499.656 218.937 501.943 219.518 503.344 220.839C504.746 222.159 505.457 224.041 506.03 225.882C506.885 228.371 507.349 230.977 507.406 233.607C507.427 234.089 507.351 234.569 507.181 235.02C506.878 235.546 506.495 236.023 506.045 236.433C505.445 237.104 504.997 237.897 504.732 238.757C504.467 239.616 504.392 240.523 504.511 241.415C504.656 243.094 504.502 244.786 504.055 246.412C503.032 250.91 502.009 255.402 501.185 259.941C500.992 260.776 500.928 261.636 500.996 262.49C501.155 263.719 501.835 264.882 501.687 266.111C501.542 266.683 501.434 267.264 501.364 267.85C501.398 268.293 501.501 268.729 501.671 269.14C502.833 272.5 505.968 280.2 505.938 283.76C500.49 282.368 492.458 282.057 486.831 282.031C485.284 282.015 483.736 282.083 482.196 282.235C478.498 282.633 474.712 283.709 471.126 282.714C467.796 281.791 464.849 279.145 461.407 279.476C460.66 277.528 461.54 271.027 462.24 269.058C464.973 261.308 465.504 252.955 463.775 244.923C463.146 242.037 464.01 238.972 463.31 236.106C463.182 235.428 462.921 234.782 462.542 234.204C462.352 233.917 462.091 233.683 461.785 233.523C461.479 233.364 461.138 233.284 460.793 233.291C460.729 228.682 461.158 224.078 462.072 219.559C462.409 217.952 463.095 216.055 464.747 215.78C466.21 215.53 467.438 216.764 468.614 217.667C469.821 218.598 471.218 219.252 472.707 219.584C473.306 219.655 473.881 219.865 474.385 220.196C475.086 220.777 475.188 221.823 475.761 222.532C476.784 223.801 479.071 223.694 479.797 225.158C479.956 225.594 480.084 226.04 480.181 226.494C480.524 227.363 481.11 228.117 481.869 228.666C483.008 229.734 484.395 230.505 485.905 230.91Z" fill="#F86D70"/>
<path d="M476.805 202.088C476.62 201.39 476.651 200.558 477.214 200.089C477.495 199.87 477.863 199.788 478.165 199.579C478.591 199.223 478.939 198.784 479.188 198.289C479.952 197.224 481.069 196.463 482.341 196.141C483.614 195.819 484.96 195.957 486.14 196.53C487.987 197.494 489.102 199.421 490.745 200.722C491.578 201.395 492.545 201.894 493.384 202.568C495.064 204.014 496.259 205.94 496.806 208.085C497.35 210.215 497.667 212.396 497.753 214.592C497.84 215.251 497.814 215.92 497.676 216.57C497.506 217.116 497.252 217.632 496.924 218.1C495.236 220.65 493.011 222.965 490.223 224.281C487.435 225.596 484.043 225.811 481.291 224.434C481.014 224.322 480.776 224.133 480.605 223.888C480.449 223.516 480.411 223.104 480.498 222.71C480.647 221.152 480.338 219.583 479.608 218.197C479.096 217.177 478.329 216.3 477.92 215.245C477.539 214.063 477.376 212.823 477.439 211.583C477.393 208.376 477.613 205.178 476.805 202.088Z" fill="#2D293D"/>
</g>
<defs>
<linearGradient id="paint0_linear" x1="514.64" y1="281.363" x2="434.555" y2="281.363" gradientUnits="userSpaceOnUse">
<stop stop-color="#808080" stop-opacity="0.25"/>
<stop offset="0.54" stop-color="#808080" stop-opacity="0.12"/>
<stop offset="1" stop-color="#808080" stop-opacity="0.1"/>
</linearGradient>
<clipPath id="clip0">
<rect width="569.663" height="400" fill="white"/>
</clipPath>
</defs>
</svg>
