<svg width="400" height="400" viewBox="0 0 400 400" fill="none" xmlns="http://www.w3.org/2000/svg">
<path d="M327.579 110.293C327.579 110.293 320.081 114.506 322.388 120.404C322.388 120.404 330.174 122.651 333.347 128.268C336.519 133.886 361.03 154.108 361.03 154.108L378.91 145.401C378.91 145.401 372.69 137.314 353.018 131.668C353.018 131.668 341.421 119.562 337.384 117.315C333.347 115.068 327.579 110.293 327.579 110.293Z" fill="#CBCDDA"/>
<path opacity="0.05" d="M327.579 110.293C327.579 110.293 320.081 114.506 322.388 120.404C322.388 120.404 330.174 122.651 333.347 128.268C336.519 133.886 361.03 154.108 361.03 154.108L378.91 145.401C378.91 145.401 372.69 137.314 353.018 131.668C353.018 131.668 341.421 119.562 337.384 117.315C333.347 115.068 327.579 110.293 327.579 110.293Z" fill="black"/>
<path opacity="0.1" d="M68.3577 379.152C64.5079 380.079 60.4809 378.997 56.5156 378.951C52.5503 378.905 47.9242 380.528 46.9523 384.273C45.647 389.302 51.6835 393.094 56.8521 394.347C76.9127 399.21 98.1483 392.898 118.651 395.473C127.291 396.557 135.693 399.212 144.38 399.845C164.264 401.294 183.692 392.084 203.603 393.122C213.578 393.642 223.274 396.727 233.25 397.222C257.121 398.407 280.67 384.759 304.038 389.649C310.636 391.03 316.831 393.845 323.369 395.476C339.898 399.598 357.3 395.924 373.94 392.248C377.244 391.518 381.227 390.097 381.634 386.821C382.083 383.206 377.822 380.94 374.276 379.785C335.506 367.156 293.998 360.466 253.559 366.303C244.356 367.631 235.18 369.605 225.878 369.475C205.289 369.186 186.37 358.726 166.157 354.9C127.857 347.65 89.564 364.564 54.4045 381.038" fill="#BDD358"/>
<path d="M121.441 271.989H109.716V368.534C109.716 368.534 185.394 392.411 258.94 368.534V271.989H121.441Z" fill="#3F3D56"/>
<path d="M183.262 283.408C223.881 283.408 256.808 278.528 256.808 272.508C256.808 266.488 223.881 261.608 183.262 261.608C142.644 261.608 109.716 266.488 109.716 272.508C109.716 278.528 142.644 283.408 183.262 283.408Z" fill="#3F3D56"/>
<path opacity="0.1" d="M183.262 283.408C223.881 283.408 256.808 278.528 256.808 272.508C256.808 266.488 223.881 261.608 183.262 261.608C142.644 261.608 109.716 266.488 109.716 272.508C109.716 278.528 142.644 283.408 183.262 283.408Z" fill="black"/>
<path d="M268.755 156.639C250.202 223.436 186.652 264.806 186.652 264.806C186.652 264.806 153.184 197.875 171.737 131.077C190.291 64.2794 253.84 22.9098 253.84 22.9098C253.84 22.9098 287.308 89.8409 268.755 156.639Z" fill="#3F3D56"/>
<path d="M99.9716 156.639C118.525 223.436 182.074 264.806 182.074 264.806C182.074 264.806 215.543 197.875 196.989 131.077C178.436 64.2794 114.887 22.9098 114.887 22.9098C114.887 22.9098 81.4184 89.8409 99.9716 156.639Z" fill="#BDD358"/>
<path d="M127.234 142.283C178.145 190.552 184.363 264.752 184.363 264.752C184.363 264.752 108.039 260.693 57.1289 212.424C6.21835 164.156 0 89.9558 0 89.9558C0 89.9558 76.3239 94.0146 127.234 142.283Z" fill="#3F3D56"/>
<path d="M241.492 142.283C190.582 190.552 184.363 264.752 184.363 264.752C184.363 264.752 260.687 260.693 311.598 212.424C362.508 164.156 368.727 89.9558 368.727 89.9558C368.727 89.9558 292.403 94.0146 241.492 142.283Z" fill="#3F3D56"/>
<path d="M184.328 45.6775C197.279 45.6775 207.778 35.4523 207.778 22.8388C207.778 10.2253 197.279 0 184.328 0C171.377 0 160.879 10.2253 160.879 22.8388C160.879 35.4523 171.377 45.6775 184.328 45.6775Z" fill="#BDD358"/>
<path d="M43.9062 184.578C45.5689 190.454 51.3456 194.029 51.3456 194.029C51.3456 194.029 54.4265 188.077 52.7638 182.201C51.1011 176.325 45.3244 172.75 45.3244 172.75C45.3244 172.75 42.2435 178.702 43.9062 184.578Z" fill="#BDD358"/>
<path d="M75.0278 217.304C73.2381 223.145 76.1893 229.159 76.1893 229.159C76.1893 229.159 82.0421 225.704 83.8318 219.863C85.6215 214.022 82.6703 208.008 82.6703 208.008C82.6703 208.008 76.8175 211.463 75.0278 217.304Z" fill="#BDD358"/>
<path d="M299.506 254.876C295.113 259.218 294.824 265.878 294.824 265.878C294.824 265.878 301.657 265.499 306.05 261.157C310.443 256.816 310.731 250.156 310.731 250.156C310.731 250.156 303.898 250.535 299.506 254.876Z" fill="#BDD358"/>
<path d="M374.296 349.87C374.296 349.87 375.161 362.227 376.603 363.632C378.045 365.036 363.626 365.879 363.626 365.879L365.644 349.87H374.296Z" fill="#FFB9B9"/>
<path opacity="0.05" d="M374.296 349.87C374.296 349.87 375.161 362.227 376.603 363.632C378.045 365.036 363.626 365.879 363.626 365.879L365.644 349.87H374.296Z" fill="black"/>
<path d="M377.468 359.419C377.468 359.419 375.449 359.419 368.24 363.07C368.24 363.07 363.337 362.227 361.319 355.487C361.319 355.487 355.263 365.598 351.226 366.16C347.188 366.721 339.402 367.283 344.593 374.024C349.784 380.764 380.352 377.675 380.352 377.675C380.352 377.675 381.217 361.385 377.468 359.419Z" fill="#CBCDDA"/>
<path opacity="0.05" d="M377.468 359.419C377.468 359.419 375.449 359.419 368.24 363.07C368.24 363.07 363.337 362.227 361.319 355.487C361.319 355.487 355.263 365.598 351.226 366.16C347.188 366.721 339.402 367.283 344.593 374.024C349.784 380.764 380.352 377.675 380.352 377.675C380.352 377.675 381.217 361.385 377.468 359.419Z" fill="black"/>
<path d="M373.142 368.968L371.124 374.305L357.858 370.653L358.614 365.356L358.796 364.078L359.3 360.542C359.3 360.542 370.547 357.734 370.547 359.138C370.698 360.296 370.945 361.44 371.285 362.559C371.746 364.286 372.326 366.255 372.715 367.55C372.969 368.406 373.142 368.968 373.142 368.968Z" fill="#FFB9B9"/>
<path d="M365.904 295.719C364.996 297.216 363.966 300.025 365.878 303.535C366.444 304.551 367.141 305.492 367.951 306.336C374.296 313.076 376.026 328.243 376.026 328.243V352.678L371.7 353.001L364.779 353.521L354.398 311.953C354.398 311.953 348.342 281.62 351.226 276.283C354.109 270.947 356.705 237.524 356.705 237.524L359.098 235.109L364.779 229.379H381.217C382.532 230.298 383.623 231.487 384.415 232.862C387.174 237.311 389.652 246.562 382.082 263.644C370.258 290.326 366.798 294.539 366.798 294.539C366.455 294.898 366.155 295.294 365.904 295.719Z" fill="#4C4C78"/>
<path opacity="0.05" d="M365.904 295.719C364.996 297.216 363.966 300.025 365.878 303.535C366.444 304.551 367.141 305.492 367.951 306.336C374.296 313.076 376.026 328.243 376.026 328.243V352.678L371.7 353.001L364.779 353.521L354.398 311.953C354.398 311.953 348.342 281.62 351.226 276.283C354.109 270.947 356.705 237.524 356.705 237.524L359.098 235.109L364.779 229.379H381.217C382.532 230.298 383.623 231.487 384.415 232.862C387.174 237.311 389.652 246.562 382.082 263.644C370.258 290.326 366.798 294.539 366.798 294.539C366.455 294.898 366.155 295.294 365.904 295.719Z" fill="black"/>
<path opacity="0.1" d="M371.285 362.559L358.796 364.078L359.3 360.542C359.3 360.542 370.547 357.734 370.547 359.138C370.698 360.296 370.945 361.44 371.285 362.559Z" fill="black"/>
<path d="M365.068 259.712C365.068 259.712 365.786 281.822 365.904 295.719C365.93 298.862 365.927 301.586 365.878 303.535C365.895 304.567 365.816 305.598 365.644 306.617C364.779 309.144 366.51 314.762 366.51 314.762C373.719 333.299 371.7 349.589 371.7 349.589V361.947L357.858 363.632C357.858 363.632 360.165 361.947 353.821 345.657C350.176 336.298 349.386 327.128 349.374 321.016C349.341 317.671 348.654 314.363 347.35 311.268C346.951 310.224 346.702 309.131 346.612 308.021C346.035 302.404 343.44 295.382 343.44 295.382C343.44 295.382 336.519 275.441 334.788 260.836C333.989 253.884 334.123 246.86 335.189 239.942C335.445 238.184 335.792 236.439 336.23 234.716C336.23 234.716 364.422 217.437 375.066 229.379C376.09 230.547 376.902 231.877 377.468 233.311C378.053 234.728 378.508 236.192 378.829 237.687C382.142 253.536 365.068 259.712 365.068 259.712Z" fill="#4C4C78"/>
<path d="M364.203 136.694C372.325 136.694 378.91 130.281 378.91 122.37C378.91 114.459 372.325 108.046 364.203 108.046C356.08 108.046 349.495 114.459 349.495 122.37C349.495 130.281 356.08 136.694 364.203 136.694Z" fill="#FFB9B9"/>
<path d="M356.128 131.358C356.128 131.358 362.184 147.929 356.128 156.636C350.072 165.342 375.449 162.534 375.449 162.534L385.254 151.018C385.254 151.018 373.719 151.018 373.142 131.358C372.565 111.697 356.128 131.358 356.128 131.358Z" fill="#FFB9B9"/>
<path opacity="0.1" d="M385.254 236.12C383.163 236.824 381.013 237.349 378.829 237.687C375.239 238.226 371.002 238.246 368.528 236.12C367.06 234.859 363.444 234.704 359.098 235.109C349.945 235.963 337.557 239.288 335.189 239.942C335.445 238.184 335.792 236.439 336.23 234.716C336.23 234.716 364.422 217.437 375.066 229.379H381.217C382.532 230.298 383.623 231.487 384.415 232.862C384.945 235.098 385.254 236.12 385.254 236.12Z" fill="black"/>
<path opacity="0.1" d="M373.142 368.968L371.124 374.305L357.858 370.653L358.614 365.356C360.892 370.266 364.779 370.934 364.779 370.934C368.972 368.811 371.409 367.923 372.715 367.55C372.969 368.407 373.142 368.968 373.142 368.968Z" fill="black"/>
<path d="M374.007 367.564C374.007 367.564 371.989 367.564 364.779 371.215C364.779 371.215 359.877 370.372 357.858 363.632C357.858 363.632 351.802 373.743 347.765 374.305C343.728 374.866 335.942 375.428 341.133 382.169C346.323 388.909 376.891 385.82 376.891 385.82C376.891 385.82 377.756 369.53 374.007 367.564Z" fill="#CBCDDA"/>
<path d="M305.592 125.113C305.592 125.113 306.155 114.175 317.958 115.245C318.289 115.276 318.606 115.385 318.883 115.564C319.16 115.742 319.387 115.985 319.544 116.269C319.702 116.554 319.785 116.872 319.786 117.195C319.787 117.518 319.706 117.837 319.551 118.122L317.13 122.559L305.592 125.113Z" fill="#FFB9B9"/>
<path d="M373.719 154.389C373.719 154.389 359.589 152.142 355.84 149.333C355.84 149.333 352.956 154.669 347.765 151.861C342.575 149.052 330.463 149.333 330.463 149.333C330.463 149.333 320.37 143.997 318.351 131.92C318.351 131.92 316.332 124.617 316.909 122.651C316.909 122.651 309.411 115.068 305.663 125.179C307.104 132.2 308.258 131.639 307.97 137.256L312.584 149.614C312.584 149.614 312.872 153.827 321.235 159.444C329.598 165.061 339.114 173.768 339.114 173.768C339.114 173.768 334.067 176.436 335.942 188.654C338.233 203.587 334.788 224.885 334.788 224.885V238.648C334.788 238.648 363.626 230.503 368.528 234.716C373.431 238.928 385.254 234.716 385.254 234.716C385.254 234.716 383.812 229.941 381.793 218.425C379.775 206.91 382.082 195.676 382.082 195.676C382.082 195.676 389.58 176.296 393.04 168.432C396.501 160.568 390.445 149.895 384.389 145.963C378.333 142.031 376.077 144.391 376.077 144.391C376.077 144.391 386.696 151.861 373.719 154.389Z" fill="#CBCDDA"/>
<path opacity="0.1" d="M348.297 118.867C348.292 119.452 348.393 120.033 348.596 120.583C348.933 121.209 349.392 121.765 349.948 122.22C352.108 124.275 354.002 126.718 354.762 129.564C355.277 131.491 355.249 133.51 355.218 135.501C355.093 143.565 354.746 152.27 349.631 158.613C347.752 160.945 345.336 162.798 343.065 164.771C342.748 164.998 342.508 165.311 342.375 165.671C342.312 166.055 342.388 166.447 342.589 166.783C343.642 168.918 345.865 170.227 347.969 171.415C348.931 171.958 349.944 172.516 351.055 172.551C353.677 172.634 355.41 169.936 357.796 168.875C361.27 167.33 365.169 169.481 368.616 171.079C371.114 172.237 373.733 173.127 376.428 173.733C380.119 174.562 384.292 174.766 387.4 172.656C389.196 171.423 390.424 169.553 390.817 167.447C391.067 166.075 391.028 164.482 392.095 163.552C392.644 163.074 393.394 162.875 393.989 162.451C394.911 161.793 395.35 160.685 395.743 159.639L399.295 150.18C399.753 149.18 399.99 148.097 399.989 147.003C399.819 144.725 397.662 143.071 395.496 142.196C393.331 141.32 390.936 140.888 389.031 139.556C385.811 137.302 384.817 133.094 384.528 129.242C384.33 126.597 384.349 123.941 384.586 121.298C384.938 117.38 385.724 113.208 383.935 109.682C382.023 105.916 377.735 103.993 373.765 102.353C372.24 101.723 370.674 101.083 369.02 101.012C367.269 100.937 365.563 101.504 363.908 102.063C361.276 102.952 358.607 104.102 355.89 104.705C354.364 105.044 352.692 104.79 351.22 105.328C345.813 107.303 348.297 114.627 348.297 118.867Z" fill="black"/>
<path d="M348.297 118.305C348.292 118.89 348.393 119.471 348.596 120.021C348.933 120.648 349.392 121.204 349.948 121.658C352.108 123.713 354.002 126.156 354.762 129.002C355.277 130.929 355.249 132.949 355.218 134.939C355.093 143.004 354.746 151.708 349.631 158.052C347.752 160.383 345.336 162.237 343.065 164.21C342.748 164.436 342.508 164.75 342.375 165.11C342.312 165.493 342.388 165.886 342.589 166.221C343.642 168.356 345.865 169.665 347.969 170.853C348.931 171.397 349.944 171.955 351.055 171.99C353.677 172.072 355.41 169.375 357.796 168.313C361.27 166.769 365.169 168.919 368.616 170.518C371.114 171.675 373.733 172.565 376.428 173.171C380.119 174 384.292 174.204 387.4 172.094C389.196 170.862 390.424 168.991 390.817 166.886C391.067 165.513 391.028 163.92 392.095 162.991C392.644 162.512 393.394 162.313 393.989 161.889C394.911 161.231 395.35 160.123 395.743 159.078L399.295 149.618C399.753 148.618 399.99 147.536 399.989 146.441C399.819 144.163 397.662 142.51 395.496 141.634C393.331 140.758 390.936 140.326 389.031 138.994C385.811 136.74 384.817 132.532 384.528 128.681C384.33 126.035 384.349 123.379 384.586 120.737C384.938 116.818 385.724 112.646 383.935 109.12C382.023 105.354 377.735 103.432 373.765 101.791C372.24 101.161 370.674 100.522 369.02 100.451C367.269 100.375 365.563 100.942 363.908 101.501C361.276 102.39 358.607 103.541 355.89 104.143C354.364 104.482 352.692 104.229 351.22 104.766C345.813 106.741 348.297 114.065 348.297 118.305Z" fill="#B96B6B"/>
<path opacity="0.05" d="M336.669 194.955C336.669 194.955 338.97 194.412 350.505 192.726C362.04 191.041 382.226 194.973 382.226 194.973" fill="black"/>
<path d="M19.7094 241.138C21.3721 247.014 27.1488 250.589 27.1488 250.589C27.1488 250.589 30.2297 244.637 28.567 238.761C26.9043 232.884 21.1276 229.309 21.1276 229.309C21.1276 229.309 18.0467 235.262 19.7094 241.138Z" fill="#BDD358"/>
</svg>
