<svg width="500" height="350" viewBox="0 0 500 350" fill="none" xmlns="http://www.w3.org/2000/svg">
<g clip-path="url(#clip0)">
<path d="M34.5651 327.555L64.0539 278.375L34.5501 332.905L34.5329 338.5C32.43 338.48 30.3483 338.4 28.2879 338.262C28.2785 336.991 30.7849 267.086 30.6784 265.821C30.8238 265.773 30.9055 259.21 30.9632 258.922L0.156006 205.179L30.9962 253.836L31.0882 255.274L32.9178 200.962L6.43574 145.345L33.1273 191.419C33.1372 190.68 34.3906 79.1653 34.4029 78.4772C34.4105 78.8427 34.9858 167.221 34.99 167.594L60.3169 132.02L34.9657 175.238L34.8362 223.846L58.3394 176.841C29.0077 245.391 35.4989 221.403 34.7498 258.022L68.8895 192.57L34.7206 267.451L34.5651 327.555Z" fill="#D0CDE1"/>
<path d="M485.696 334.232L497.985 313.737L485.69 336.461L485.683 338.793C484.807 338.784 483.939 338.751 483.08 338.694C483.076 338.164 484.121 309.033 484.077 308.506C484.137 308.486 484.171 305.751 484.195 305.631L471.357 283.235L484.209 303.511L484.247 304.111L485.01 281.478L473.974 258.3L485.097 277.501C485.101 277.193 485.624 230.722 485.629 230.435C485.632 230.587 485.872 267.417 485.873 267.572L496.428 252.748L485.863 270.757L485.809 291.014L495.604 271.426C483.38 299.992 486.085 289.996 485.773 305.256L500 277.98L485.761 309.185L485.696 334.232Z" fill="#D0CDE1"/>
<path d="M249.183 349.082C386.803 349.082 498.365 344.008 498.365 337.75C498.365 331.491 386.803 326.418 249.183 326.418C111.563 326.418 0 331.491 0 337.75C0 344.008 111.563 349.082 249.183 349.082Z" fill="#D0CDE1"/>
<path d="M370.055 133.843H85.5403V330.736H370.055V133.843Z" fill="#3F3D56"/>
<path d="M155.953 133.843C155.662 154.562 148.368 174.318 135.643 188.851C122.918 203.385 105.782 211.531 87.9298 211.533C87.1302 211.533 86.3353 211.517 85.5403 211.484V133.843H155.953Z" fill="#E5E059"/>
<path d="M241.715 330.735H214.655C215.673 327.521 217.517 324.747 219.936 322.787C222.356 320.828 225.235 319.777 228.185 319.777C231.136 319.777 234.015 320.828 236.434 322.787C238.854 324.747 240.697 327.521 241.715 330.735Z" fill="#E5E059"/>
<path d="M370.055 228.892V295.212C362.72 294.796 355.804 291.121 350.739 284.948C345.674 278.775 342.85 270.577 342.85 262.052C342.85 253.528 345.674 245.33 350.739 239.157C355.804 232.984 362.72 229.309 370.055 228.892Z" fill="#E5E059"/>
<path d="M317.787 205.389H138.301C133.672 205.389 129.919 209.745 129.919 215.119V215.119C129.919 220.493 133.672 224.849 138.301 224.849H317.787C322.417 224.849 326.17 220.493 326.17 215.119C326.17 209.745 322.417 205.389 317.787 205.389Z" fill="white"/>
<path d="M317.787 243.737H138.301C133.672 243.737 129.919 248.093 129.919 253.467V253.467C129.919 258.84 133.672 263.197 138.301 263.197H317.787C322.417 263.197 326.17 258.84 326.17 253.467C326.17 248.093 322.417 243.737 317.787 243.737Z" fill="white"/>
<path d="M317.787 282.084H265.746C261.117 282.084 257.364 286.441 257.364 291.815C257.364 297.188 261.117 301.545 265.746 301.545H317.787C322.417 301.545 326.17 297.188 326.17 291.815C326.17 286.441 322.417 282.084 317.787 282.084Z" fill="white"/>
<path d="M415.174 60.5024C415.174 60.5024 422.997 64.034 423.432 75.6377C423.866 87.2414 421.259 119.53 421.259 119.53C421.259 119.53 430.821 135.674 423.432 140.215C416.043 144.756 415.174 122.053 415.174 122.053L406.481 74.1242C406.481 74.1242 411.696 59.9979 415.174 60.5024Z" fill="#A0616A"/>
<path d="M335.199 97.8362C335.199 97.8362 316.51 111.962 315.64 100.863C314.771 89.764 321.291 46.3761 321.291 46.3761C321.291 46.3761 322.16 27.7092 331.287 32.2498C340.415 36.7905 328.68 52.4303 328.68 52.4303L329.984 87.746L338.676 87.2415L335.199 97.8362Z" fill="#A0616A"/>
<path d="M365.19 110.953C365.19 110.953 307.817 86.2324 310.86 114.99C313.902 143.747 328.68 180.071 328.68 180.071L333.896 189.657H344.762L337.807 137.692C337.807 137.692 362.582 153.837 369.971 151.314C369.971 151.314 379.533 225.477 383.01 231.027C386.487 236.577 392.572 303.676 392.572 303.676L398.223 311.749H409.089V198.234C409.089 198.234 427.778 127.602 413.435 124.071C399.092 120.539 365.19 110.953 365.19 110.953Z" fill="#2F2E41"/>
<path d="M332.591 183.098C332.591 183.098 329.984 177.549 325.637 183.098C321.291 188.648 310.859 195.207 310.859 195.207C310.859 195.207 288.258 201.261 306.513 206.306C324.768 211.351 326.941 206.306 326.941 206.306C326.941 206.306 329.984 207.315 332.591 208.324C335.199 209.333 352.15 205.801 352.15 202.774C352.15 199.747 346.396 181.657 344.057 184.396C341.719 187.135 332.591 183.098 332.591 183.098Z" fill="#2F2E41"/>
<path d="M399.055 306.755C399.055 306.755 392.647 300.629 391.139 302.379C389.631 304.129 381.715 315.944 381.715 315.944C381.715 315.944 360.604 334.76 379.83 337.823C399.055 340.886 397.925 332.572 397.925 332.572H403.956C404.71 332.572 414.888 327.321 414.512 325.133C414.135 322.945 409.611 305.104 408.103 306.367C406.595 307.63 399.055 306.755 399.055 306.755Z" fill="#2F2E41"/>
<path d="M340.85 41.331C349.011 41.331 355.628 33.6512 355.628 24.1776C355.628 14.7041 349.011 7.02429 340.85 7.02429C332.688 7.02429 326.072 14.7041 326.072 24.1776C326.072 33.6512 332.688 41.331 340.85 41.331Z" fill="#A0616A"/>
<path d="M351.281 22.1596C351.281 22.1596 362.582 33.2588 370.406 33.2588C378.229 33.2588 359.105 53.9438 359.105 53.9438L342.154 36.2859L351.281 22.1596Z" fill="#A0616A"/>
<path d="M355.628 53.9438L355.289 49.9691C355.289 49.9691 363.886 32.2498 366.494 30.7363C369.102 29.2228 370.84 29.2228 370.84 29.2228C370.84 29.2228 379.533 18.628 389.095 24.1777C398.657 29.7273 421.259 65.043 421.259 65.043C421.259 65.043 405.177 66.5565 407.35 81.1873C407.35 81.1873 423.432 129.116 419.086 129.62C414.739 130.125 401.7 126.593 388.226 133.656C374.752 140.72 368.667 136.179 368.667 136.179L361.713 109.944C361.713 109.944 348.674 101.368 349.108 93.8001L330.201 103.638L331.94 84.9711L343.458 69.5836C343.458 69.5836 341.285 67.5655 355.628 53.9438Z" fill="#575A89"/>
<path d="M327.256 26.0321C326.669 26.7898 325.933 27.3717 325.11 27.7285C324.269 28.0041 323.208 27.6662 322.873 26.7287L323.498 25.7847L321.624 24.4335L322.441 23.3219L320.932 21.4201L322.123 20.3234L319.855 18.4411C322.794 12.8751 325.972 7.23935 330.611 3.54961C335.251 -0.140129 341.734 -1.45122 346.487 2.03877C348.954 3.85073 350.699 6.7266 352.097 9.70235C354.908 15.6869 357.386 21.5205 357.752 28.3235C355.986 26.3276 353.408 25.2028 351.642 23.2069C350.86 22.2439 349.974 21.4022 349.007 20.7027C347.16 19.4938 344.95 19.3869 342.882 18.8416C341.144 18.383 340.016 17.4734 338.701 16.1731C337.136 14.6262 337.072 15.2243 335.492 16.9659C332.749 19.9901 330.003 23.0122 327.256 26.0321Z" fill="#2F2E41"/>
</g>
<defs>
<clipPath id="clip0">
<rect width="500" height="349.082" fill="white"/>
</clipPath>
</defs>
</svg>
